<svg xmlns="http://www.w3.org/2000/svg" viewBox="0 0 1200 760" fill="none"><rect width="1200" height="760" fill="#0B1020"/><circle cx="238" cy="188" r="126" fill="#1D4ED8" fill-opacity=".25"/><circle cx="920" cy="170" r="150" fill="#14B8A6" fill-opacity=".18"/><rect x="92" y="90" width="1016" height="580" rx="32" fill="#0F172A" stroke="#334155"/><rect x="140" y="136" width="220" height="24" rx="12" fill="#93C5FD" fill-opacity=".7"/><rect x="140" y="190" width="630" height="22" rx="11" fill="#CBD5E1" fill-opacity=".18"/><rect x="140" y="228" width="550" height="22" rx="11" fill="#94A3B8" fill-opacity=".18"/><path d="M160 360C230 300 336 290 410 346C486 402 574 398 654 340C737 280 849 282 924 346" stroke="#60A5FA" stroke-width="10" stroke-linecap="round"/><path d="M160 414C228 474 336 486 412 430C486 374 580 374 654 430C734 490 850 490 924 426" stroke="#2DD4BF" stroke-width="10" stroke-linecap="round"/><rect x="140" y="520" width="176" height="76" rx="20" fill="#111827" stroke="#1E293B"/><rect x="350" y="520" width="176" height="76" rx="20" fill="#111827" stroke="#1E293B"/><rect x="560" y="520" width="176" height="76" rx="20" fill="#111827" stroke="#1E293B"/><rect x="770" y="520" width="176" height="76" rx="20" fill="#111827" stroke="#1E293B"/></svg>