<svg xmlns="http://www.w3.org/2000/svg" viewBox="0 0 1200 760" fill="none"><rect width="1200" height="760" fill="#16120F"/><rect x="74" y="74" width="1052" height="612" rx="28" fill="#1C1917" stroke="#57534E"/><g stroke="#44403C" stroke-width="2"><path d="M140 148h920M140 248h920M140 348h920M140 448h920M140 548h920"/><path d="M240 116v510M420 116v510M600 116v510M780 116v510M960 116v510"/></g><rect x="160" y="170" width="240" height="156" rx="18" fill="#292524" stroke="#78716C"/><rect x="448" y="214" width="308" height="112" rx="18" fill="#0F766E" fill-opacity=".22" stroke="#14B8A6"/><rect x="804" y="166" width="220" height="236" rx="18" fill="#292524" stroke="#78716C"/><rect x="194" y="210" width="172" height="16" rx="8" fill="#A8A29E"/><rect x="194" y="248" width="132" height="16" rx="8" fill="#57534E"/><circle cx="915" cy="284" r="64" fill="#0C4A6E" stroke="#38BDF8" stroke-width="8"/><path d="M878 284h74M915 247v74" stroke="#7DD3FC" stroke-width="12" stroke-linecap="round"/><path d="M484 270h236" stroke="#2DD4BF" stroke-width="16" stroke-linecap="round"/><path d="M160 594h864" stroke="#A16207" stroke-width="10" stroke-linecap="round"/></svg>