<svg xmlns="http://www.w3.org/2000/svg" viewBox="0 0 1200 760" fill="none"><rect width="1200" height="760" fill="#0F172A"/><rect x="86" y="86" width="1028" height="588" rx="28" fill="#020617" stroke="#334155"/><path d="M150 558H1040" stroke="#475569" stroke-width="4"/><path d="M242 614V146" stroke="#475569" stroke-width="4"/><path d="M242 558C340 514 420 462 492 396C572 322 654 244 758 206C820 184 890 176 1040 190" stroke="#A78BFA" stroke-width="10" stroke-linecap="round"/><path d="M242 558C326 536 416 506 508 468C644 412 756 348 1040 286" stroke="#22D3EE" stroke-width="8" stroke-linecap="round" stroke-dasharray="20 16"/><circle cx="572" cy="322" r="12" fill="#F8FAFC"/><rect x="744" y="396" width="250" height="118" rx="18" fill="#111827" stroke="#334155"/><rect x="778" y="430" width="168" height="18" rx="9" fill="#E2E8F0" fill-opacity=".75"/><rect x="778" y="468" width="128" height="18" rx="9" fill="#64748B"/><text x="784" y="381" fill="#C4B5FD" font-family="Georgia,serif" font-size="30">f(x) preserves structure</text></svg>