<svg xmlns="http://www.w3.org/2000/svg" viewBox="0 0 1200 760" fill="none"><rect width="1200" height="760" fill="#0A0F16"/><rect x="82" y="82" width="1036" height="596" rx="28" fill="#0F172A" stroke="#334155"/><g stroke="#CBD5E1" stroke-width="3"><path d="M130 190h940M130 220h940M130 250h940M130 280h940M130 310h940"/><path d="M130 430h940M130 460h940M130 490h940M130 520h940M130 550h940"/></g><path d="M220 188v116" stroke="#E2E8F0" stroke-width="6"/><ellipse cx="214" cy="286" rx="22" ry="16" fill="#E2E8F0" transform="rotate(-18 214 286)"/><path d="M354 188v86" stroke="#7DD3FC" stroke-width="6"/><ellipse cx="348" cy="274" rx="22" ry="16" fill="#7DD3FC" transform="rotate(-18 348 274)"/><path d="M518 188v134" stroke="#FCA5A5" stroke-width="6"/><ellipse cx="512" cy="322" rx="22" ry="16" fill="#FCA5A5" transform="rotate(-18 512 322)"/><path d="M694 430v86" stroke="#C4B5FD" stroke-width="6"/><ellipse cx="688" cy="516" rx="22" ry="16" fill="#C4B5FD" transform="rotate(-18 688 516)"/><path d="M848 430v112" stroke="#86EFAC" stroke-width="6"/><ellipse cx="842" cy="542" rx="22" ry="16" fill="#86EFAC" transform="rotate(-18 842 542)"/><path d="M964 430v74" stroke="#FDE68A" stroke-width="6"/><ellipse cx="958" cy="504" rx="22" ry="16" fill="#FDE68A" transform="rotate(-18 958 504)"/><text x="132" y="116" fill="#E2E8F0" font-family="Georgia,serif" font-size="40">Counterpoint, color, and motion</text></svg>