<svg xmlns="http://www.w3.org/2000/svg" viewBox="0 0 1200 760" fill="none"><rect width="1200" height="760" fill="#111111"/><rect x="72" y="72" width="1056" height="616" rx="28" fill="#1C1917" stroke="#44403C"/><g fill="#0A0A0A" stroke="#57534E"><rect x="124" y="124" width="220" height="160" rx="16"/><rect x="372" y="124" width="220" height="160" rx="16"/><rect x="620" y="124" width="220" height="160" rx="16"/><rect x="868" y="124" width="180" height="160" rx="16"/><rect x="124" y="316" width="220" height="160" rx="16"/><rect x="372" y="316" width="220" height="160" rx="16"/><rect x="620" y="316" width="220" height="160" rx="16"/><rect x="868" y="316" width="180" height="160" rx="16"/></g><circle cx="234" cy="204" r="46" fill="#FAFAF9" fill-opacity=".12"/><rect x="420" y="170" width="120" height="68" rx="34" fill="#78716C"/><path d="M652 244c34-76 102-76 156 0" stroke="#D6D3D1" stroke-width="10" stroke-linecap="round"/><path d="M915 166h92v78h-92z" fill="#44403C"/><path d="M160 560h792" stroke="#A8A29E" stroke-width="8" stroke-linecap="round"/><text x="128" y="614" fill="#D6D3D1" font-family="Georgia,serif" font-size="34">Light, grain, timing, restraint.</text></svg>