<svg xmlns="http://www.w3.org/2000/svg" viewBox="0 0 1200 760" fill="none"><rect width="1200" height="760" fill="#111827"/><rect x="56" y="56" width="1088" height="648" rx="28" fill="#0B1220" stroke="#334155"/><rect x="100" y="108" width="460" height="24" rx="12" fill="#7DD3FC" fill-opacity=".55"/><rect x="100" y="158" width="900" height="16" rx="8" fill="#475569"/><rect x="100" y="196" width="830" height="16" rx="8" fill="#334155"/><rect x="100" y="234" width="760" height="16" rx="8" fill="#334155"/><rect x="100" y="296" width="280" height="320" rx="20" fill="#0F172A" stroke="#1E293B"/><rect x="420" y="296" width="280" height="320" rx="20" fill="#0F172A" stroke="#1E293B"/><rect x="740" y="296" width="280" height="320" rx="20" fill="#0F172A" stroke="#1E293B"/><path d="M160 396h160" stroke="#38BDF8" stroke-width="18" stroke-linecap="round"/><path d="M160 444h120" stroke="#64748B" stroke-width="14" stroke-linecap="round"/><path d="M160 488h150" stroke="#64748B" stroke-width="14" stroke-linecap="round"/><circle cx="560" cy="430" r="74" fill="#082F49" stroke="#38BDF8" stroke-width="8"/><path d="M530 430l20 20 42-44" stroke="#67E8F9" stroke-width="14" stroke-linecap="round" stroke-linejoin="round"/><rect x="786" y="366" width="188" height="28" rx="14" fill="#34D399" fill-opacity=".7"/><rect x="786" y="416" width="140" height="18" rx="9" fill="#64748B"/><rect x="786" y="452" width="170" height="18" rx="9" fill="#64748B"/></svg>